solid 3SHN01070369 | A.1 | In Work | 3D Shape01070369 | daniel.koman | Common Space | 1/17/2024 
  facet normal 5.555705e-01 8.314695e-01 0.000000e+00
    outer loop
      vertex -2.195263e+01 1.859872e+00 0.000000e+00
      vertex -1.989254e+01 4.833650e-01 2.540000e+01
      vertex -1.989254e+01 4.833650e-01 0.000000e+00
    endloop
  endfacet
  facet normal 1.950903e-01 9.807853e-01 -0.000000e+00
    outer loop
      vertex -1.989254e+01 4.833650e-01 0.000000e+00
      vertex -1.989254e+01 4.833650e-01 2.540000e+01
      vertex -1.746250e+01 4.440892e-16 2.540000e+01
    endloop
  endfacet
  facet normal 1.950903e-01 9.807853e-01 0.000000e+00
    outer loop
      vertex -1.989254e+01 4.833650e-01 0.000000e+00
      vertex -1.746250e+01 4.440892e-16 2.540000e+01
      vertex -1.746250e+01 8.881784e-16 0.000000e+00
    endloop
  endfacet
  facet normal 5.555705e-01 8.314695e-01 0.000000e+00
    outer loop
      vertex -1.989254e+01 4.833650e-01 2.540000e+01
      vertex -2.195263e+01 1.859872e+00 0.000000e+00
      vertex -2.195263e+01 1.859872e+00 2.540000e+01
    endloop
  endfacet
  facet normal 8.314692e-01 5.555707e-01 0.000000e+00
    outer loop
      vertex -2.195263e+01 1.859872e+00 2.540000e+01
      vertex -2.195263e+01 1.859872e+00 0.000000e+00
      vertex -2.332914e+01 3.919960e+00 0.000000e+00
    endloop
  endfacet
  facet normal 8.314692e-01 5.555707e-01 0.000000e+00
    outer loop
      vertex -2.195263e+01 1.859872e+00 2.540000e+01
      vertex -2.332914e+01 3.919960e+00 0.000000e+00
      vertex -2.332914e+01 3.919960e+00 2.540000e+01
    endloop
  endfacet
  facet normal 9.807854e-01 1.950900e-01 0.000000e+00
    outer loop
      vertex -2.332914e+01 3.919960e+00 2.540000e+01
      vertex -2.332914e+01 3.919960e+00 0.000000e+00
      vertex -2.381250e+01 6.350000e+00 0.000000e+00
    endloop
  endfacet
  facet normal 9.807854e-01 1.950900e-01 0.000000e+00
    outer loop
      vertex -2.332914e+01 3.919960e+00 2.540000e+01
      vertex -2.381250e+01 6.350000e+00 0.000000e+00
      vertex -2.381250e+01 6.350000e+00 2.540000e+01
    endloop
  endfacet
  facet normal 1.000000e+00 -0.000000e+00 0.000000e+00
    outer loop
      vertex -2.381250e+01 6.350000e+00 2.540000e+01
      vertex -2.381250e+01 6.350000e+00 0.000000e+00
      vertex -2.381250e+01 2.540000e+01 2.540000e+01
    endloop
  endfacet
  facet normal 1.000000e+00 0.000000e+00 -0.000000e+00
    outer loop
      vertex -2.381250e+01 2.540000e+01 0.000000e+00
      vertex -2.381250e+01 2.540000e+01 2.540000e+01
      vertex -2.381250e+01 6.350000e+00 0.000000e+00
    endloop
  endfacet
  facet normal 8.314691e-01 -5.555709e-01 0.000000e+00
    outer loop
      vertex -2.195263e+01 2.989013e+01 0.000000e+00
      vertex -2.332914e+01 2.783004e+01 2.540000e+01
      vertex -2.332914e+01 2.783004e+01 0.000000e+00
    endloop
  endfacet
  facet normal 9.807854e-01 -1.950899e-01 0.000000e+00
    outer loop
      vertex -2.332914e+01 2.783004e+01 0.000000e+00
      vertex -2.332914e+01 2.783004e+01 2.540000e+01
      vertex -2.381250e+01 2.540000e+01 2.540000e+01
    endloop
  endfacet
  facet normal 9.807854e-01 -1.950899e-01 0.000000e+00
    outer loop
      vertex -2.332914e+01 2.783004e+01 0.000000e+00
      vertex -2.381250e+01 2.540000e+01 2.540000e+01
      vertex -2.381250e+01 2.540000e+01 0.000000e+00
    endloop
  endfacet
  facet normal 8.314691e-01 -5.555709e-01 0.000000e+00
    outer loop
      vertex -2.332914e+01 2.783004e+01 2.540000e+01
      vertex -2.195263e+01 2.989013e+01 0.000000e+00
      vertex -2.195263e+01 2.989013e+01 2.540000e+01
    endloop
  endfacet
  facet normal 5.555709e-01 -8.314691e-01 0.000000e+00
    outer loop
      vertex -2.195263e+01 2.989013e+01 2.540000e+01
      vertex -2.195263e+01 2.989013e+01 0.000000e+00
      vertex -1.989254e+01 3.126664e+01 0.000000e+00
    endloop
  endfacet
  facet normal 5.555709e-01 -8.314691e-01 0.000000e+00
    outer loop
      vertex -2.195263e+01 2.989013e+01 2.540000e+01
      vertex -1.989254e+01 3.126664e+01 0.000000e+00
      vertex -1.989254e+01 3.126664e+01 2.540000e+01
    endloop
  endfacet
  facet normal 1.950899e-01 -9.807854e-01 0.000000e+00
    outer loop
      vertex -1.989254e+01 3.126664e+01 2.540000e+01
      vertex -1.989254e+01 3.126664e+01 0.000000e+00
      vertex -1.746250e+01 3.175000e+01 0.000000e+00
    endloop
  endfacet
  facet normal 1.950899e-01 -9.807854e-01 0.000000e+00
    outer loop
      vertex -1.989254e+01 3.126664e+01 2.540000e+01
      vertex -1.746250e+01 3.175000e+01 0.000000e+00
      vertex -1.746250e+01 3.175000e+01 2.540000e+01
    endloop
  endfacet
  facet normal 0.000000e+00 -1.000000e+00 0.000000e+00
    outer loop
      vertex -1.746250e+01 3.175000e+01 2.540000e+01
      vertex -1.746250e+01 3.175000e+01 0.000000e+00
      vertex 0.000000e+00 3.175000e+01 2.540000e+01
    endloop
  endfacet
  facet normal 0.000000e+00 -1.000000e+00 0.000000e+00
    outer loop
      vertex 0.000000e+00 3.175000e+01 0.000000e+00
      vertex 0.000000e+00 3.175000e+01 2.540000e+01
      vertex -1.746250e+01 3.175000e+01 0.000000e+00
    endloop
  endfacet
  facet normal -1.000000e+00 -0.000000e+00 -0.000000e+00
    outer loop
      vertex 0.000000e+00 3.175000e+01 2.540000e+01
      vertex 0.000000e+00 3.175000e+01 0.000000e+00
      vertex 0.000000e+00 4.440892e-16 2.540000e+01
    endloop
  endfacet
  facet normal -1.000000e+00 0.000000e+00 0.000000e+00
    outer loop
      vertex 0.000000e+00 4.440892e-16 0.000000e+00
      vertex 0.000000e+00 4.440892e-16 2.540000e+01
      vertex 0.000000e+00 3.175000e+01 0.000000e+00
    endloop
  endfacet
  facet normal 0.000000e+00 1.000000e+00 0.000000e+00
    outer loop
      vertex 0.000000e+00 4.440892e-16 2.540000e+01
      vertex 0.000000e+00 4.440892e-16 0.000000e+00
      vertex -1.746250e+01 4.440892e-16 2.540000e+01
    endloop
  endfacet
  facet normal 2.543102e-17 1.000000e+00 1.748383e-17
    outer loop
      vertex -1.746250e+01 8.881784e-16 0.000000e+00
      vertex -1.746250e+01 4.440892e-16 2.540000e+01
      vertex 0.000000e+00 4.440892e-16 0.000000e+00
    endloop
  endfacet
  facet normal 0.000000e+00 0.000000e+00 1.000000e+00
    outer loop
      vertex 0.000000e+00 3.175000e+01 0.000000e+00
      vertex -2.381250e+01 2.540000e+01 0.000000e+00
      vertex -2.381250e+01 6.350000e+00 0.000000e+00
    endloop
  endfacet
  facet normal -0.000000e+00 -0.000000e+00 1.000000e+00
    outer loop
      vertex -2.332914e+01 3.919960e+00 0.000000e+00
      vertex -1.746250e+01 8.881784e-16 0.000000e+00
      vertex -2.381250e+01 6.350000e+00 0.000000e+00
    endloop
  endfacet
  facet normal 0.000000e+00 0.000000e+00 1.000000e+00
    outer loop
      vertex -2.381250e+01 2.540000e+01 0.000000e+00
      vertex -2.195263e+01 2.989013e+01 0.000000e+00
      vertex -2.332914e+01 2.783004e+01 0.000000e+00
    endloop
  endfacet
  facet normal 0.000000e+00 0.000000e+00 1.000000e+00
    outer loop
      vertex -2.332914e+01 3.919960e+00 0.000000e+00
      vertex -1.989254e+01 4.833650e-01 0.000000e+00
      vertex -1.746250e+01 8.881784e-16 0.000000e+00
    endloop
  endfacet
  facet normal -0.000000e+00 0.000000e+00 1.000000e+00
    outer loop
      vertex -1.989254e+01 3.126664e+01 0.000000e+00
      vertex -2.381250e+01 2.540000e+01 0.000000e+00
      vertex -1.746250e+01 3.175000e+01 0.000000e+00
    endloop
  endfacet
  facet normal 0.000000e+00 0.000000e+00 1.000000e+00
    outer loop
      vertex 0.000000e+00 4.440892e-16 0.000000e+00
      vertex -2.381250e+01 6.350000e+00 0.000000e+00
      vertex -1.746250e+01 8.881784e-16 0.000000e+00
    endloop
  endfacet
  facet normal 0.000000e+00 0.000000e+00 1.000000e+00
    outer loop
      vertex -2.381250e+01 2.540000e+01 0.000000e+00
      vertex -1.989254e+01 3.126664e+01 0.000000e+00
      vertex -2.195263e+01 2.989013e+01 0.000000e+00
    endloop
  endfacet
  facet normal 0.000000e+00 0.000000e+00 1.000000e+00
    outer loop
      vertex 0.000000e+00 3.175000e+01 0.000000e+00
      vertex -2.381250e+01 6.350000e+00 0.000000e+00
      vertex 0.000000e+00 4.440892e-16 0.000000e+00
    endloop
  endfacet
  facet normal 0.000000e+00 0.000000e+00 1.000000e+00
    outer loop
      vertex -2.381250e+01 2.540000e+01 0.000000e+00
      vertex 0.000000e+00 3.175000e+01 0.000000e+00
      vertex -1.746250e+01 3.175000e+01 0.000000e+00
    endloop
  endfacet
  facet normal 0.000000e+00 0.000000e+00 1.000000e+00
    outer loop
      vertex -1.989254e+01 4.833650e-01 0.000000e+00
      vertex -2.332914e+01 3.919960e+00 0.000000e+00
      vertex -2.195263e+01 1.859872e+00 0.000000e+00
    endloop
  endfacet
  facet normal -1.000000e+00 0.000000e+00 0.000000e+00
    outer loop
      vertex -3.016250e+01 3.810000e+01 -6.350000e+00
      vertex -3.016250e+01 -6.350000e+00 2.540000e+01
      vertex -3.016250e+01 3.810000e+01 2.540000e+01
    endloop
  endfacet
  facet normal -1.000000e+00 0.000000e+00 0.000000e+00
    outer loop
      vertex -3.016250e+01 -6.350000e+00 2.540000e+01
      vertex -3.016250e+01 3.810000e+01 -6.350000e+00
      vertex -3.016250e+01 -6.350000e+00 -6.350000e+00
    endloop
  endfacet
  facet normal 0.000000e+00 1.000000e+00 -0.000000e+00
    outer loop
      vertex 6.350000e+00 3.810000e+01 -6.350000e+00
      vertex -3.016250e+01 3.810000e+01 2.540000e+01
      vertex 6.350000e+00 3.810000e+01 2.540000e+01
    endloop
  endfacet
  facet normal 0.000000e+00 1.000000e+00 0.000000e+00
    outer loop
      vertex -3.016250e+01 3.810000e+01 2.540000e+01
      vertex 6.350000e+00 3.810000e+01 -6.350000e+00
      vertex -3.016250e+01 3.810000e+01 -6.350000e+00
    endloop
  endfacet
  facet normal 0.000000e+00 -1.000000e+00 0.000000e+00
    outer loop
      vertex -3.016250e+01 -6.350000e+00 -6.350000e+00
      vertex 6.350000e+00 -6.350000e+00 2.540000e+01
      vertex -3.016250e+01 -6.350000e+00 2.540000e+01
    endloop
  endfacet
  facet normal 0.000000e+00 -1.000000e+00 -0.000000e+00
    outer loop
      vertex 6.350000e+00 -6.350000e+00 2.540000e+01
      vertex -3.016250e+01 -6.350000e+00 -6.350000e+00
      vertex 6.350000e+00 -6.350000e+00 -6.350000e+00
    endloop
  endfacet
  facet normal 1.000000e+00 0.000000e+00 0.000000e+00
    outer loop
      vertex 6.350000e+00 -6.350000e+00 -6.350000e+00
      vertex 6.350000e+00 3.810000e+01 2.540000e+01
      vertex 6.350000e+00 -6.350000e+00 2.540000e+01
    endloop
  endfacet
  facet normal 1.000000e+00 0.000000e+00 0.000000e+00
    outer loop
      vertex 6.350000e+00 3.810000e+01 2.540000e+01
      vertex 6.350000e+00 -6.350000e+00 -6.350000e+00
      vertex 6.350000e+00 3.810000e+01 -6.350000e+00
    endloop
  endfacet
  facet normal 0.000000e+00 0.000000e+00 -1.000000e+00
    outer loop
      vertex -3.016250e+01 -6.350000e+00 -6.350000e+00
      vertex 6.350000e+00 3.810000e+01 -6.350000e+00
      vertex 6.350000e+00 -6.350000e+00 -6.350000e+00
    endloop
  endfacet
  facet normal -0.000000e+00 0.000000e+00 -1.000000e+00
    outer loop
      vertex 6.350000e+00 3.810000e+01 -6.350000e+00
      vertex -3.016250e+01 -6.350000e+00 -6.350000e+00
      vertex -3.016250e+01 3.810000e+01 -6.350000e+00
    endloop
  endfacet
  facet normal 0.000000e+00 0.000000e+00 1.000000e+00
    outer loop
      vertex -2.381250e+01 2.540000e+01 2.540000e+01
      vertex -3.016250e+01 -6.350000e+00 2.540000e+01
      vertex -2.381250e+01 6.350000e+00 2.540000e+01
    endloop
  endfacet
  facet normal 0.000000e+00 0.000000e+00 1.000000e+00
    outer loop
      vertex -2.332914e+01 2.783004e+01 2.540000e+01
      vertex -3.016250e+01 3.810000e+01 2.540000e+01
      vertex -2.381250e+01 2.540000e+01 2.540000e+01
    endloop
  endfacet
  facet normal 0.000000e+00 0.000000e+00 1.000000e+00
    outer loop
      vertex -2.195263e+01 2.989013e+01 2.540000e+01
      vertex -3.016250e+01 3.810000e+01 2.540000e+01
      vertex -2.332914e+01 2.783004e+01 2.540000e+01
    endloop
  endfacet
  facet normal 0.000000e+00 0.000000e+00 1.000000e+00
    outer loop
      vertex -1.989254e+01 3.126664e+01 2.540000e+01
      vertex -3.016250e+01 3.810000e+01 2.540000e+01
      vertex -2.195263e+01 2.989013e+01 2.540000e+01
    endloop
  endfacet
  facet normal 0.000000e+00 0.000000e+00 1.000000e+00
    outer loop
      vertex -1.746250e+01 3.175000e+01 2.540000e+01
      vertex -3.016250e+01 3.810000e+01 2.540000e+01
      vertex -1.989254e+01 3.126664e+01 2.540000e+01
    endloop
  endfacet
  facet normal 0.000000e+00 0.000000e+00 1.000000e+00
    outer loop
      vertex 6.350000e+00 3.810000e+01 2.540000e+01
      vertex -1.746250e+01 3.175000e+01 2.540000e+01
      vertex 0.000000e+00 3.175000e+01 2.540000e+01
    endloop
  endfacet
  facet normal 0.000000e+00 -0.000000e+00 1.000000e+00
    outer loop
      vertex -1.746250e+01 3.175000e+01 2.540000e+01
      vertex 6.350000e+00 3.810000e+01 2.540000e+01
      vertex -3.016250e+01 3.810000e+01 2.540000e+01
    endloop
  endfacet
  facet normal 0.000000e+00 0.000000e+00 1.000000e+00
    outer loop
      vertex -3.016250e+01 -6.350000e+00 2.540000e+01
      vertex -2.332914e+01 3.919960e+00 2.540000e+01
      vertex -2.381250e+01 6.350000e+00 2.540000e+01
    endloop
  endfacet
  facet normal 0.000000e+00 0.000000e+00 1.000000e+00
    outer loop
      vertex -3.016250e+01 -6.350000e+00 2.540000e+01
      vertex -2.195263e+01 1.859872e+00 2.540000e+01
      vertex -2.332914e+01 3.919960e+00 2.540000e+01
    endloop
  endfacet
  facet normal 0.000000e+00 0.000000e+00 1.000000e+00
    outer loop
      vertex -3.016250e+01 -6.350000e+00 2.540000e+01
      vertex -1.989254e+01 4.833650e-01 2.540000e+01
      vertex -2.195263e+01 1.859872e+00 2.540000e+01
    endloop
  endfacet
  facet normal 0.000000e+00 0.000000e+00 1.000000e+00
    outer loop
      vertex -3.016250e+01 -6.350000e+00 2.540000e+01
      vertex -1.746250e+01 4.440892e-16 2.540000e+01
      vertex -1.989254e+01 4.833650e-01 2.540000e+01
    endloop
  endfacet
  facet normal 0.000000e+00 0.000000e+00 1.000000e+00
    outer loop
      vertex 6.350000e+00 -6.350000e+00 2.540000e+01
      vertex -1.746250e+01 4.440892e-16 2.540000e+01
      vertex -3.016250e+01 -6.350000e+00 2.540000e+01
    endloop
  endfacet
  facet normal 0.000000e+00 0.000000e+00 1.000000e+00
    outer loop
      vertex 6.350000e+00 -6.350000e+00 2.540000e+01
      vertex 0.000000e+00 3.175000e+01 2.540000e+01
      vertex 0.000000e+00 4.440892e-16 2.540000e+01
    endloop
  endfacet
  facet normal -0.000000e+00 0.000000e+00 1.000000e+00
    outer loop
      vertex -1.746250e+01 4.440892e-16 2.540000e+01
      vertex 6.350000e+00 -6.350000e+00 2.540000e+01
      vertex 0.000000e+00 4.440892e-16 2.540000e+01
    endloop
  endfacet
  facet normal -0.000000e+00 0.000000e+00 1.000000e+00
    outer loop
      vertex 0.000000e+00 3.175000e+01 2.540000e+01
      vertex 6.350000e+00 -6.350000e+00 2.540000e+01
      vertex 6.350000e+00 3.810000e+01 2.540000e+01
    endloop
  endfacet
  facet normal 0.000000e+00 0.000000e+00 1.000000e+00
    outer loop
      vertex -3.016250e+01 -6.350000e+00 2.540000e+01
      vertex -2.381250e+01 2.540000e+01 2.540000e+01
      vertex -3.016250e+01 3.810000e+01 2.540000e+01
    endloop
  endfacet
endsolid
